<svg width="52" height="72" viewBox="0 0 52 72" fill="none" xmlns="http://www.w3.org/2000/svg">
<g clip-path="url(#clip0)">
<path d="M4.64167 66.2142L0 14.1516H51.0048L46.358 66.2059L25.4711 71.9966L4.64167 66.2142Z" fill="#E44D26"/>
<path d="M25.5024 67.5705L42.3799 62.8912L46.3511 18.4086H25.5024V67.5705Z" fill="#F16529"/>
<path d="M25.5025 37.7179H17.0534L16.4697 31.1793H25.5025V24.7939H9.49121L9.64422 26.507L11.2135 44.103H25.5025V37.7179ZM25.5025 54.3009L25.4745 54.3086L18.3633 52.3883L17.9086 47.2959H11.4989L12.3936 57.3217L25.4733 60.9527L25.5025 60.9444V54.3009Z" fill="#EBEBEB"/>
<path d="M4.74561 0.0032959H7.99044V3.20918H10.9587V0.0032959H14.2036V9.7116H10.9587V6.46074H7.99044V9.7116H4.74584L4.74561 0.0032959ZM18.471 3.22286H15.6145V0.0032959H24.5743V3.22286H21.7164V9.7116H18.4711V3.22286H18.471ZM25.9961 0.0032959H29.3798L31.4611 3.41459L33.5405 0.0032959H36.9253V9.7116H33.6933V4.89952L31.4608 8.35139H31.405L29.171 4.89952V9.7116H25.9959V0.0032959H25.9961ZM38.54 0.0032959H41.7858V6.5027H46.3493V9.7116H38.54V0.0032959Z" fill="black"/>
<path d="M25.4802 37.7179V44.103H33.3431L32.6018 52.3843L25.4802 54.3063V60.9493L38.5704 57.3217L38.6661 56.2426L40.1668 39.4326L40.3226 37.7179H38.6021H25.4802ZM25.4802 24.7939V31.1793H40.9037L41.0316 29.744L41.3226 26.507L41.4753 24.7939H25.4802Z" fill="white"/>
</g>
<defs>
<clipPath id="clip0">
<rect width="51.0048" height="72" fill="white"/>
</clipPath>
</defs>
</svg>
