<svg width="72" height="72" viewBox="0 0 72 72" fill="none" xmlns="http://www.w3.org/2000/svg">
<path d="M0 0H72V72H0V0Z" fill="#F0DB4F"/>
<path d="M66.1073 54.8282C65.5803 51.543 63.4381 48.7848 57.0936 46.2114C54.8898 45.1985 52.4328 44.4731 51.7005 42.8031C51.4404 41.8312 51.4062 41.2837 51.5704 40.6951C52.0427 38.7856 54.3217 38.1901 56.1286 38.7377C57.2921 39.1278 58.394 40.0244 59.0579 41.4548C62.1651 39.4427 62.1582 39.4563 64.3278 38.0738C63.5339 36.8419 63.1096 36.2738 62.5894 35.7468C60.721 33.6594 58.175 32.5848 54.1027 32.667C53.3978 32.756 52.6861 32.8517 51.9811 32.9407C49.9484 33.4541 48.0115 34.5217 46.8754 35.9522C43.467 39.8191 44.4389 46.5879 48.5864 49.3735C52.6723 52.4397 58.6746 53.1378 59.4411 56.0055C60.1871 59.5165 56.861 60.6526 53.5552 60.2488C51.1187 59.7424 49.7636 58.5036 48.2989 56.2519C45.6024 57.8123 45.6024 57.8123 42.8306 59.407C43.4876 60.8443 44.1788 61.4945 45.2808 62.7401C50.496 68.0306 63.5476 67.7705 65.8883 59.7629C65.9841 59.4891 66.6138 57.6548 66.1073 54.8282V54.8282ZM39.1415 33.0912H32.4069C32.4069 38.9088 32.3796 44.6852 32.3796 50.5027C32.3796 54.2054 32.5713 57.6001 31.969 58.6404C30.9834 60.6867 28.4306 60.4335 27.2671 60.0365C26.0831 59.4548 25.4808 58.6266 24.7827 57.4563C24.5911 57.121 24.4473 56.8609 24.3994 56.8404C22.572 57.956 20.7514 59.0783 18.9241 60.194C19.8344 62.0624 21.1758 63.6845 22.8936 64.7384C25.4602 66.2784 28.9096 66.7506 32.5165 65.9225C34.864 65.2381 36.8898 63.8214 37.9507 61.6655C39.4837 58.8389 39.1552 55.4168 39.1415 51.632C39.1758 45.4586 39.1415 39.2852 39.1415 33.0912Z" fill="#323330"/>
</svg>
