<svg width="72" height="72" viewBox="0 0 72 72" fill="none" xmlns="http://www.w3.org/2000/svg">
<path d="M0 62.7162C0 67.844 4.15659 72 9.28378 72H62.7159C67.844 72 72 67.8434 72 62.7162V9.28406C72 4.15603 67.8434 0 62.7162 0H9.28406C4.15603 0 0 4.15659 0 9.28378V62.7159V62.7162Z" fill="#563D7C"/>
<path d="M29.857 31.8482V21.652H38.832C39.687 21.652 40.5111 21.7232 41.3047 21.8658C42.0984 22.0081 42.8007 22.2623 43.4113 22.6288C44.0216 22.9953 44.5102 23.5041 44.8766 24.1552C45.2428 24.8065 45.4262 25.641 45.4262 26.6583C45.4262 28.4901 44.8766 29.8131 43.7775 30.627C42.6787 31.4412 41.2744 31.8482 39.5647 31.8482H29.857V31.8482ZM20.2711 14.2031V57.7969H41.3964C43.3503 57.7969 45.2532 57.5528 47.1053 57.0642C48.9573 56.5757 50.6057 55.8228 52.0508 54.8052C53.4956 53.7877 54.6456 52.4748 55.5003 50.8672C56.3553 49.2592 56.7826 47.3563 56.7826 45.1583C56.7826 42.4311 56.121 40.1009 54.7983 38.1676C53.4753 36.234 51.4706 34.8806 48.7841 34.1072C50.7379 33.1712 52.2136 31.9702 53.2109 30.5049C54.208 29.0396 54.7066 27.2081 54.7066 25.0099C54.7066 22.9748 54.3708 21.2653 53.6992 19.8813C53.0276 18.4975 52.0812 17.3883 50.86 16.5538C49.6391 15.7193 48.1737 15.1189 46.464 14.7527C44.7546 14.3862 42.8618 14.2031 40.7858 14.2031H20.2711V14.2031ZM29.857 50.348V38.3811H40.2973C42.3732 38.3811 44.0422 38.8592 45.3041 39.816C46.5658 40.7725 47.197 42.37 47.197 44.6088C47.197 45.7487 47.0035 46.6847 46.6167 47.4173C46.23 48.15 45.7111 48.7302 45.0597 49.1574C44.4086 49.5849 43.6554 49.8901 42.8007 50.0735C41.9457 50.2563 41.0505 50.348 40.1142 50.348H29.857V50.348Z" fill="white"/>
</svg>
