<svg width="52" height="72" viewBox="0 0 52 72" fill="none" xmlns="http://www.w3.org/2000/svg">
<g clip-path="url(#clip0)">
<path d="M39.9716 2.6642H35.7406L40.1415 7.44249V9.71499H31.0746V7.05366H35.4756L31.0746 2.27537V0H39.9745L39.9716 2.6642ZM29.2745 2.6642H25.0376L29.4444 7.44249V9.71499H20.3746V7.05366H24.7755L20.3746 2.27537V0H29.2745V2.6642ZM18.681 2.77365H14.1158V6.94421H18.681V9.71787H10.8669V0H18.681V2.77365Z" fill="#131313"/>
<path d="M4.64293 66.2193L0 14.1534H51.0089L46.3602 66.2107L25.4728 72L4.64293 66.2193Z" fill="#1572B6"/>
<path d="M25.5044 67.576L42.3825 62.8957L46.3515 18.4105H25.5044V67.576Z" fill="#33A9DC"/>
<path d="M25.5044 37.273H33.955L34.5368 30.7349H25.5044V24.3524H41.5185L41.3658 26.0661L39.7961 43.6642H25.5044V37.273Z" fill="white"/>
<path d="M25.5389 53.8574H25.5101L18.3988 51.9363L17.9437 46.8441H11.5381L12.4338 56.8701L25.5158 60.5107H25.5533V53.8574H25.5389Z" fill="#EBEBEB"/>
<path d="M33.4133 43.3849L32.6443 51.9305L25.5215 53.8517V60.505L38.6121 56.8759L38.7072 55.7958L39.819 43.382H33.4133V43.3849Z" fill="white"/>
<path d="M25.5276 24.3524V30.7378H10.1068L9.97432 29.3034L9.68341 26.0661L9.53076 24.3524H25.5276ZM25.5045 37.273V43.6584H18.4739L18.35 42.2241L18.0591 38.9867L17.9065 37.273H25.5016H25.5045Z" fill="#EBEBEB"/>
</g>
<defs>
<clipPath id="clip0">
<rect width="51.0089" height="72" fill="white"/>
</clipPath>
</defs>
</svg>
