<svg width="258" height="75" viewBox="0 0 258 75" fill="none" xmlns="http://www.w3.org/2000/svg">
<g clip-path="url(#clip0)">
<path d="M1.67612 58.1895V29.5259H37.4642V27.8493H1.67612V1.69992H39.7268V0.0238037H0V59.8656H40.0619V58.1895H1.67662H1.67612ZM72.3302 16.786L57.4956 36.3144L42.9956 16.7865H40.8164L56.4895 37.572L39.3073 59.8651H41.319L57.4946 38.8281L73.7543 59.8651H75.8494L58.5842 37.571L74.3408 16.7855H72.3297L72.3302 16.786ZM80.8788 74.6166V47.7972H81.0463C82.0524 51.7083 84.0358 54.8513 86.9972 57.2261C89.9586 59.6005 93.7299 60.7882 98.3115 60.7882C101.273 60.7882 103.899 60.1875 106.19 58.9863C108.481 57.785 110.394 56.1507 111.931 54.0832C113.468 52.0157 114.641 49.6132 115.452 46.8752C116.261 44.1376 116.667 41.2598 116.667 38.243C116.667 35.002 116.247 32.0124 115.409 29.2749C114.571 26.5369 113.356 24.162 111.764 22.1509C110.171 20.1392 108.243 18.5743 105.98 17.4576C103.718 16.3398 101.161 15.7809 98.3115 15.7809C96.1324 15.7809 94.1071 16.1024 92.2353 16.7448C90.3635 17.3876 88.7015 18.2951 87.2487 19.4687C85.7875 20.6513 84.5155 22.0503 83.477 23.6172C82.4156 25.2099 81.6052 26.9559 81.0463 28.8559H80.8788V16.786H79.2027V74.6166H80.8788V74.6166ZM98.3115 59.195C93.0598 59.195 88.8409 57.3932 85.6561 53.7894C82.4714 50.1856 80.8788 45.0029 80.8788 38.242C80.8788 35.4482 81.2702 32.7941 82.0524 30.28C82.8346 27.7658 83.9659 25.5585 85.4464 23.659C86.9273 21.759 88.7574 20.2504 90.936 19.1332C93.1152 18.0154 95.574 17.4565 98.3115 17.4565C101.105 17.4565 103.55 18.0154 105.645 19.1332C107.74 20.2504 109.473 21.7731 110.842 23.7007C112.21 25.6284 113.244 27.8357 113.943 30.3217C114.641 32.8082 114.99 35.4482 114.99 38.242C114.99 40.7567 114.669 43.2573 114.026 45.7433C113.384 48.2298 112.392 50.4648 111.051 52.4488C109.71 54.4318 107.992 56.0521 105.897 57.3097C103.801 58.5667 101.273 59.195 98.3115 59.195V59.195ZM125.886 59.8656V35.4763C125.886 33.1297 126.221 30.8383 126.892 28.6038C127.562 26.3689 128.596 24.399 129.993 22.6952C131.39 20.9909 133.163 19.6498 135.315 18.6719C137.466 17.694 140.022 17.289 142.984 17.4565V15.7804C140.413 15.7251 138.165 16.0038 136.237 16.6185C134.309 17.2332 132.647 18.0713 131.25 19.1332C129.853 20.1946 128.736 21.4376 127.898 22.8627C127.06 24.2855 126.439 25.8248 126.054 27.4303H125.886V16.786H124.21V59.8661H125.886V59.8656ZM145.079 38.6611H181.118C181.23 35.6997 180.937 32.8505 180.238 30.1125C179.54 27.3744 178.422 24.9438 176.886 22.8209C175.349 20.6976 173.366 18.9933 170.935 17.7081C168.504 16.4228 165.613 15.7804 162.261 15.7804C159.858 15.7804 157.511 16.2835 155.22 17.2895C152.929 18.2951 150.918 19.7615 149.186 21.6891C147.454 23.6167 146.057 25.9775 144.995 28.7719C143.934 31.5652 143.403 34.75 143.403 38.326C143.403 41.5108 143.766 44.4862 144.492 47.2519C145.219 50.0176 146.336 52.4206 147.845 54.4599C149.354 56.4993 151.295 58.0778 153.67 59.195C156.044 60.3128 158.908 60.8435 162.261 60.7877C167.177 60.7877 171.312 59.4043 174.664 56.6391C178.017 53.8729 180.001 49.9759 180.615 44.947H178.939C178.213 49.6967 176.355 53.2587 173.366 55.633C170.376 58.0079 166.619 59.195 162.093 59.195C159.02 59.195 156.421 58.6643 154.298 57.6029C152.175 56.5415 150.443 55.0882 149.102 53.2446C147.761 51.4005 146.769 49.2354 146.127 46.7489C145.484 44.2629 145.135 41.5666 145.079 38.6611ZM179.442 36.9849H145.079C145.246 33.9677 145.805 31.2579 146.755 28.8554C147.705 26.4524 148.948 24.399 150.485 22.6952C152.021 20.9909 153.81 19.692 155.849 18.7976C157.888 17.9037 160.081 17.4565 162.428 17.4565C165.222 17.4565 167.68 17.9737 169.804 19.0074C171.926 20.0412 173.701 21.4522 175.126 23.24C176.55 25.0278 177.626 27.1093 178.352 29.4837C179.079 31.8585 179.442 34.3591 179.442 36.9849ZM215.9 29.5259H217.577C217.577 24.7204 216.18 21.2283 213.386 19.0492C210.592 16.87 206.792 15.7804 201.987 15.7804C199.305 15.7804 197.043 16.116 195.198 16.7865C193.355 17.4566 191.846 18.3228 190.673 19.3842C189.5 20.4456 188.662 21.6192 188.158 22.9044C187.655 24.1897 187.404 25.4191 187.404 26.5922C187.404 28.9389 187.823 30.8107 188.662 32.2076C189.5 33.6045 190.812 34.6941 192.6 35.4763C193.83 36.0347 195.226 36.5377 196.791 36.9855C198.356 37.4321 200.171 37.907 202.239 38.4095C204.083 38.8573 205.899 39.3039 207.687 39.7506C209.475 40.1978 211.053 40.7985 212.422 41.5525C213.791 42.3071 214.908 43.2709 215.775 44.4445C216.64 45.6176 217.074 47.1543 217.074 49.0538C217.074 50.8979 216.641 52.4624 215.775 53.7471C214.916 55.0257 213.785 56.099 212.464 56.8906C211.123 57.7005 209.628 58.2871 207.98 58.6502C206.332 59.0134 204.725 59.195 203.161 59.195C198.076 59.195 194.179 58.0637 191.469 55.801C188.759 53.5379 187.404 49.9759 187.404 45.1145H185.728C185.728 50.5348 187.195 54.5017 190.128 57.0164C193.062 59.5306 197.406 60.7877 203.161 60.7877C205.005 60.7877 206.862 60.5779 208.735 60.1589C210.606 59.7398 212.283 59.0557 213.763 58.1055C215.231 57.1687 216.464 55.9071 217.367 54.4182C218.289 52.9091 218.75 51.0655 218.75 48.8863C218.75 46.8188 218.345 45.1427 217.535 43.8574C216.724 42.5727 215.663 41.5108 214.35 40.6727C213.037 39.8347 211.556 39.1782 209.908 38.7033C208.25 38.2256 206.588 37.7645 204.921 37.32C202.869 36.7817 200.816 36.251 198.76 35.7279C197.001 35.2807 195.366 34.75 193.858 34.1352C192.405 33.5205 191.246 32.6407 190.379 31.4953C189.513 30.3499 189.081 28.7155 189.081 26.5922C189.081 26.2013 189.192 25.5026 189.416 24.4971C189.639 23.491 190.17 22.4713 191.008 21.4376C191.846 20.4043 193.131 19.4823 194.863 18.6719C196.595 17.862 198.97 17.4565 201.987 17.4565C204.055 17.4565 205.94 17.6804 207.645 18.1271C209.349 18.5743 210.816 19.2866 212.045 20.2645C213.274 21.2424 214.224 22.4854 214.894 23.994C215.565 25.5031 215.9 27.3468 215.9 29.5259V29.5259ZM254.705 29.5259H256.381C256.381 24.7204 254.985 21.2283 252.191 19.0492C249.397 16.87 245.598 15.7804 240.792 15.7804C238.111 15.7804 235.847 16.116 234.004 16.7865C232.16 17.4566 230.651 18.3228 229.478 19.3842C228.304 20.4456 227.466 21.6192 226.963 22.9044C226.46 24.1897 226.209 25.4191 226.209 26.5922C226.209 28.9389 226.628 30.8107 227.467 32.2076C228.304 33.6045 229.618 34.6941 231.406 35.4763C232.635 36.0347 234.031 36.5377 235.596 36.9855C237.16 37.4321 238.976 37.907 241.044 38.4095C242.888 38.8573 244.704 39.3039 246.492 39.7506C248.28 40.1978 249.858 40.7985 251.227 41.5525C252.596 42.3071 253.714 43.2709 254.579 44.4445C255.446 45.6176 255.879 47.1543 255.879 49.0538C255.879 50.8979 255.446 52.4624 254.579 53.7471C253.721 55.0256 252.591 56.099 251.269 56.8906C249.928 57.7005 248.433 58.2871 246.785 58.6502C245.137 59.0134 243.53 59.195 241.966 59.195C236.881 59.195 232.984 58.0637 230.274 55.801C227.564 53.5379 226.209 49.9759 226.209 45.1145H224.533C224.533 50.5348 225.999 54.5017 228.933 57.0164C231.866 59.5306 236.211 60.7877 241.966 60.7877C243.81 60.7877 245.668 60.5779 247.539 60.1589C249.411 59.7398 251.087 59.0557 252.568 58.1055C254.036 57.1687 255.269 55.9071 256.172 54.4182C257.094 52.9091 257.555 51.0655 257.555 48.8863C257.555 46.8188 257.15 45.1427 256.34 43.8574C255.53 42.5727 254.468 41.5108 253.155 40.6727C251.842 39.8347 250.361 39.1782 248.713 38.7033C247.055 38.2256 245.393 37.7645 243.726 37.32C241.674 36.7817 239.621 36.251 237.566 35.7279C235.806 35.2807 234.171 34.75 232.663 34.1352C231.21 33.5205 230.05 32.6407 229.185 31.4953C228.318 30.3499 227.885 28.7155 227.885 26.5922C227.885 26.2013 227.997 25.5026 228.221 24.4971C228.444 23.491 228.975 22.4713 229.813 21.4376C230.651 20.4043 231.936 19.4823 233.668 18.6719C235.401 17.862 237.775 17.4565 240.793 17.4565C242.86 17.4565 244.746 17.6804 246.45 18.1271C248.154 18.5743 249.621 19.2866 250.85 20.2645C252.079 21.2424 253.029 22.4854 253.7 23.994C254.37 25.5031 254.706 27.3468 254.706 29.5259H254.705Z" fill="#222222"/>
</g>
<defs>
<clipPath id="clip0">
<rect width="257.555" height="75" fill="white"/>
</clipPath>
</defs>
</svg>
