<svg width="265" height="75" viewBox="0 0 265 75" fill="none" xmlns="http://www.w3.org/2000/svg">
<g clip-path="url(#clip0)">
<path d="M243.647 26.6953C243.003 26.6953 242.377 26.8282 241.823 27.1417L224.295 37.2641C223.161 37.9179 222.471 39.152 222.471 40.4653V60.6734C222.471 61.9857 223.161 63.2182 224.295 63.8736L228.873 66.5162C231.097 67.6122 231.917 67.5951 232.929 67.5951C236.222 67.5951 238.102 65.597 238.102 62.1248V42.1769C238.102 41.895 237.858 41.6932 237.581 41.6932H235.385C235.104 41.6932 234.864 41.895 234.864 42.1769V62.1248C234.864 63.6636 233.261 65.2117 230.659 63.9108L225.895 61.1198C225.727 61.0282 225.597 60.8663 225.597 60.6734V40.4648C225.597 40.2734 225.725 40.0784 225.895 39.9812L243.386 29.8965C243.465 29.8503 243.555 29.826 243.647 29.826C243.738 29.826 243.828 29.8503 243.907 29.8965L261.399 39.9817C261.565 40.082 261.697 40.2677 261.697 40.4658V60.6739C261.697 60.8669 261.599 61.0644 261.436 61.1576L243.907 71.2427C243.757 71.3322 243.55 71.3322 243.386 71.2427L238.883 68.5634C238.815 68.5262 238.738 68.5068 238.66 68.5068C238.582 68.5068 238.505 68.5262 238.437 68.5634C237.194 69.2679 236.96 69.3496 235.794 69.7541C235.507 69.8544 235.071 70.0101 235.943 70.4989L241.823 73.9593C242.378 74.2791 243.007 74.4462 243.647 74.4434C244.287 74.4474 244.916 74.2804 245.47 73.9598L262.999 63.8741C264.133 63.2146 264.822 61.9862 264.822 60.6739V40.4653C264.822 39.1526 264.133 37.9205 262.999 37.2651L245.47 27.1427C244.921 26.8288 244.291 26.6958 243.647 26.6958L243.647 26.6953Z" fill="#83CD29"/>
<path d="M248.336 41.1351C243.344 41.1351 240.372 43.2594 240.372 46.7922C240.372 50.6239 243.322 51.677 248.113 52.1508C253.844 52.712 254.29 53.5536 254.29 54.6817C254.29 56.6384 252.73 57.4727 249.043 57.4727C244.41 57.4727 243.393 56.3162 243.052 54.0119C243.011 53.7646 242.82 53.565 242.568 53.565H240.297C240.018 53.565 239.777 53.806 239.777 54.0864C239.777 57.0362 241.381 60.5245 249.043 60.5245C254.59 60.5245 257.789 58.3474 257.789 54.5327C257.789 50.7517 255.205 49.7364 249.824 49.0251C244.388 48.3057 243.87 47.9534 243.87 46.6805C243.87 45.6294 244.31 44.2236 248.336 44.2236C251.933 44.2236 253.262 44.9994 253.807 47.4248C253.854 47.6524 254.055 47.8339 254.29 47.8339H256.561C256.701 47.8339 256.836 47.7481 256.933 47.6477C257.028 47.5407 257.095 47.4201 257.082 47.2758C256.73 43.0996 253.945 41.1351 248.336 41.1351V41.1351Z" fill="#83CD29"/>
<path d="M140.597 0.198116C140.401 0.198246 140.209 0.249408 140.038 0.346565C139.869 0.445498 139.729 0.586772 139.631 0.756469C139.533 0.926166 139.481 1.11843 139.48 1.31432V29.7843C139.48 30.0636 139.351 30.314 139.108 30.4542C138.99 30.5233 138.855 30.5597 138.718 30.5597C138.58 30.5597 138.446 30.5233 138.327 30.4542L133.675 27.7748C133.335 27.5785 132.95 27.4751 132.558 27.4751C132.166 27.4751 131.781 27.5785 131.442 27.7748L112.871 38.4926C112.177 38.8935 111.755 39.6636 111.755 40.4654V61.9014C111.755 62.7021 112.178 63.4355 112.871 63.8364L131.442 74.5547C131.781 74.7515 132.166 74.8552 132.558 74.8552C132.951 74.8552 133.336 74.7515 133.675 74.5547L152.245 63.8364C152.585 63.6407 152.868 63.3587 153.064 63.019C153.26 62.6792 153.363 62.2937 153.362 61.9014V8.46001C153.362 8.05853 153.255 7.66438 153.052 7.31779C152.849 6.97121 152.558 6.68461 152.209 6.48725L141.155 0.309323C140.982 0.212599 140.789 0.19553 140.597 0.198116V0.198116ZM21.135 26.9561C20.7812 26.97 20.4481 27.0321 20.1305 27.2162L1.55948 37.9345C1.2193 38.1299 0.936864 38.4119 0.74083 38.7517C0.544795 39.0915 0.442139 39.4772 0.443277 39.8695L0.480519 68.6379C0.480519 69.0378 0.686898 69.4097 1.03862 69.6052C1.20725 69.7065 1.40026 69.76 1.59698 69.76C1.79371 69.76 1.98672 69.7065 2.15535 69.6052L13.171 63.2788C13.8688 62.864 14.3245 62.1429 14.3245 61.3433V47.9085C14.3245 47.1067 14.746 46.3712 15.4412 45.9729L20.13 43.2564C20.469 43.0593 20.8546 42.9564 21.2467 42.9585C21.6295 42.9585 22.0226 43.0542 22.3629 43.2564L27.0522 45.9729C27.3927 46.1682 27.6754 46.4501 27.8716 46.7901C28.0678 47.1301 28.1704 47.516 28.169 47.9085V61.3428C28.169 62.1424 28.6293 62.8686 29.3224 63.2783L40.3381 69.6052C40.5067 69.7065 40.6997 69.76 40.8965 69.76C41.0932 69.76 41.2862 69.7065 41.4548 69.6052C41.6246 69.507 41.7655 69.3659 41.8635 69.196C41.9616 69.0262 42.0133 68.8335 42.0135 68.6374L42.0497 39.8695C42.0519 39.477 41.9497 39.0909 41.7535 38.7509C41.5574 38.4109 41.2744 38.1291 40.9335 37.9345L22.3629 27.2162C22.049 27.0321 21.7148 26.9705 21.3585 26.9561H21.135ZM188.009 27.2162C187.622 27.2162 187.241 27.3145 186.893 27.5142L168.323 38.2324C167.983 38.428 167.7 38.71 167.504 39.0498C167.308 39.3896 167.205 39.7751 167.206 40.1674V61.6035C167.206 62.4098 167.66 63.1402 168.359 63.539L186.782 74.0338C187.462 74.4217 188.292 74.4512 188.977 74.07L200.142 67.8554C200.496 67.6588 200.736 67.2916 200.737 66.8881C200.739 66.6917 200.688 66.4983 200.59 66.3281C200.492 66.1579 200.35 66.0171 200.179 65.9204L181.497 55.2021C181.147 55.0024 180.902 54.5985 180.902 54.1971V47.4988C180.902 47.0979 181.15 46.7307 181.497 46.531L187.302 43.1814C187.472 43.0832 187.665 43.0315 187.861 43.0315C188.057 43.0315 188.249 43.0832 188.419 43.1814L194.224 46.531C194.394 46.6288 194.535 46.7697 194.634 46.9395C194.732 47.1094 194.783 47.3021 194.783 47.4983V52.7829C194.782 52.9791 194.834 53.1718 194.932 53.3417C195.03 53.5116 195.171 53.6525 195.341 53.7502C195.689 53.9514 196.11 53.9519 196.457 53.7502L207.585 47.2759C207.924 47.0795 208.206 46.7972 208.402 46.4575C208.598 46.1178 208.702 45.7326 208.702 45.3404V40.1679C208.702 39.3688 208.278 38.6338 207.585 38.2324L189.126 27.5142C188.787 27.3179 188.401 27.2152 188.009 27.2167V27.2162ZM132.484 43.2192C132.581 43.2192 132.695 43.2429 132.782 43.2931L139.146 46.9774C139.318 47.0773 139.444 47.2619 139.444 47.4611V54.8297C139.444 55.0298 139.319 55.214 139.146 55.3138L132.782 58.9981C132.697 59.0467 132.6 59.0722 132.503 59.0722C132.405 59.0722 132.308 59.0467 132.223 58.9981L125.86 55.3138C125.687 55.2135 125.562 55.0298 125.562 54.8297V47.4611C125.562 47.2614 125.687 47.0783 125.86 46.9774L132.223 43.2936C132.302 43.245 132.392 43.2193 132.484 43.2197V43.2192H132.484Z" fill="#404137"/>
<path d="M76.921 27.1045C76.5341 27.1045 76.1514 27.2028 75.8048 27.4024L57.2343 38.0835C56.5397 38.4833 56.1176 39.255 56.1176 40.0557V61.4917C56.1176 62.2935 56.5402 63.0259 57.2343 63.4273L75.8048 74.145C76.1439 74.342 76.5291 74.4458 76.9213 74.4458C77.3135 74.4458 77.6987 74.342 78.0378 74.145L96.6083 63.4273C96.9482 63.2315 97.2305 62.9494 97.4265 62.6095C97.6225 62.2697 97.7253 61.8841 97.7245 61.4917V40.0557C97.7245 39.254 97.3024 38.4833 96.6083 38.0835L78.0378 27.4024C77.6983 27.2064 77.313 27.1036 76.921 27.1045V27.1045ZM187.972 46.2336C187.898 46.2336 187.816 46.2336 187.749 46.2709L184.177 48.3548C184.11 48.3919 184.054 48.4458 184.015 48.5111C183.976 48.5765 183.955 48.651 183.953 48.7273V52.8207C183.953 52.9748 184.042 53.116 184.177 53.1931L187.749 55.2398C187.883 55.3174 188.026 55.3174 188.158 55.2398L191.731 53.1926C191.797 53.1554 191.853 53.1015 191.892 53.0363C191.931 52.9711 191.953 52.8968 191.954 52.8207V48.7267C191.953 48.6507 191.931 48.5764 191.892 48.5112C191.853 48.4459 191.797 48.3921 191.731 48.3548L188.158 46.2704C188.092 46.2316 188.047 46.2342 187.972 46.2342V46.2336Z" fill="#83CD29"/>
</g>
<defs>
<clipPath id="clip0">
<rect width="264.831" height="75" fill="white"/>
</clipPath>
</defs>
</svg>
