<svg width="214" height="75" viewBox="0 0 214 75" fill="none" xmlns="http://www.w3.org/2000/svg">
<g clip-path="url(#clip0)">
<path d="M185.669 65.2479V75H203.288C206.898 75 213.094 72.3599 213.309 64.9785V61.2069C213.309 54.903 208.137 51.1853 203.288 51.1853H194.506V46.6595H211.909V36.8534H195.206C190.896 36.8534 185.131 40.4095 185.131 47.0366V50.431C185.131 57.0582 190.842 60.4526 195.206 60.4526C207.329 60.5065 192.297 60.4526 203.503 60.4526V65.194L185.669 65.2479ZM91.2727 62.8772C91.2727 62.8772 100.702 62.069 100.702 49.8922C100.702 37.7155 89.2792 36.584 89.2792 36.584H68.6973V75H79.0421V65.7328L87.9861 75H103.288L91.2727 62.8772V62.8772ZM87.2856 55.0108H79.0421V46.2284H87.3395C87.3395 46.2284 89.6563 47.0905 89.6563 50.5927C89.6563 54.0948 87.2856 55.0108 87.2856 55.0108V55.0108ZM126.24 36.8534H115.734C108.245 36.8534 105.712 43.6422 105.712 46.875V75H116.219V68.2651H126.079V75H136.262V46.875C136.262 38.6853 128.827 36.8534 126.24 36.8534V36.8534ZM126.079 57.3815H116.165V48.0603C116.165 48.0603 116.165 45.9591 119.452 45.9591H123.062C125.971 45.9591 126.025 48.0603 126.025 48.0603V57.3815H126.079V57.3815ZM141.057 36.8534H151.995V75H141.057V36.8534ZM167.35 65.1401V36.8534H156.467V75H182.059V65.1401H167.35Z" fill="#CC0202"/>
<path d="M3.77271 75H46.3374C46.3374 75 38.2016 37.8771 65.1412 22.8448C71.0141 19.9892 89.7102 9.32111 120.314 31.9504C121.283 31.1422 122.199 30.4957 122.199 30.4957C122.199 30.4957 94.1822 2.53232 62.9861 5.65732C47.3072 7.05818 28.0184 21.3362 16.7037 40.194C5.38908 59.0517 3.77271 75 3.77271 75Z" fill="#CC0202"/>
<path d="M3.77271 75H46.3374C46.3374 75 38.2016 37.8771 65.1412 22.8448C71.0141 19.9892 89.7102 9.32111 120.314 31.9504C121.283 31.1422 122.199 30.4957 122.199 30.4957C122.199 30.4957 94.1822 2.53232 62.9861 5.65732C47.3072 7.05818 28.0184 21.3362 16.7037 40.194C5.38908 59.0517 3.77271 75 3.77271 75Z" fill="#CC0202"/>
<path d="M3.77271 75H46.3374C46.3374 75 38.2016 37.8771 65.1412 22.8448C71.0141 19.9892 89.7102 9.32113 120.314 31.9504C121.283 31.1422 122.199 30.4957 122.199 30.4957C122.199 30.4957 94.1822 2.53234 62.9861 5.65734C47.2533 7.0582 27.9645 21.3362 16.6499 40.1939C5.3352 59.0517 3.77271 75 3.77271 75ZM92.4581 8.67458L92.6736 5.06467C92.1887 4.79527 90.8417 4.14872 87.4473 3.17889L87.2318 6.73493C89.0098 7.3276 90.7339 7.97415 92.4581 8.67458Z" fill="#CC0202"/>
<path d="M87.3396 20.097L87.1241 23.4914C88.9021 23.5453 90.6801 23.7608 92.4581 24.1379L92.6736 20.7974C90.8417 20.4203 89.0637 20.2047 87.3396 20.097ZM67.4042 3.28664H67.943L66.8654 0C65.1952 0 63.4711 0.107759 61.693 0.323276L62.7167 3.50216C64.2792 3.34052 65.8417 3.28664 67.4042 3.28664V3.28664ZM69.9904 23.1142L71.2297 26.8319C72.7922 26.0776 74.3547 25.431 75.9172 24.9461L74.7318 21.3901C72.8999 21.9289 71.3374 22.5216 69.9904 23.1142ZM45.5292 8.94397L43.1047 5.22629C41.7577 5.92672 40.3568 6.68103 38.9021 7.5431L41.3805 11.3147C42.7814 10.4526 44.1284 9.6444 45.5292 8.94397ZM56.5745 33.1897L59.1607 37.069C60.0767 35.722 61.1542 34.4828 62.3396 33.2435L59.915 29.5797C58.6758 30.7112 57.5443 31.9504 56.5745 33.1897ZM48.762 50.5388L53.1262 53.9871C53.3417 51.8858 53.7189 49.7845 54.2577 47.6832L50.3784 44.6121C49.6779 46.6056 49.193 48.5991 48.762 50.5388V50.5388ZM25.1629 24.9461L21.3374 21.6056C19.9366 22.9526 18.5896 24.2996 17.3504 25.6466L21.4991 29.2026C22.6305 27.7478 23.8698 26.2931 25.1629 24.9461ZM8.89131 49.0302L2.69519 46.7672C1.67148 49.0841 0.540014 51.778 0.0012207 53.2328L6.19734 55.4957C6.89777 53.6638 8.02924 51.0237 8.89131 49.0302ZM47.9538 64.2241C48.0616 67.0797 48.331 69.3966 48.6004 71.0129L55.0659 73.3297C54.581 71.2284 54.0961 68.8578 53.7728 66.3254L47.9538 64.2241Z" fill="#CC0202"/>
</g>
<defs>
<clipPath id="clip0">
<rect width="213.311" height="75" fill="white"/>
</clipPath>
</defs>
</svg>
