<svg width="64" height="72" viewBox="0 0 64 72" fill="none" xmlns="http://www.w3.org/2000/svg">
<g clip-path="url(#clip0)">
<path d="M63.1872 36.0064C63.1872 31.8206 57.9452 27.8537 49.9084 25.3937C51.763 17.2023 50.9387 10.6852 47.3067 8.5987C46.4695 8.10927 45.4907 7.87744 44.4217 7.87744V10.7496C45.0141 10.7496 45.4907 10.8655 45.8899 11.0845C47.6415 12.0891 48.4014 15.9143 47.809 20.8343C47.6673 22.045 47.4355 23.3201 47.1521 24.6209C44.6277 24.0027 41.8715 23.5261 38.9736 23.217C37.2349 20.8343 35.4317 18.6705 33.6157 16.7772C37.8144 12.8747 41.7556 10.7367 44.4345 10.7367V7.86456C40.8927 7.86456 36.256 10.389 31.5678 14.768C26.8797 10.4147 22.243 7.91608 18.7011 7.91608V10.7882C21.3672 10.7882 25.3212 12.9134 29.52 16.7901C27.7168 18.6834 25.9137 20.8343 24.2007 23.217C21.2899 23.5261 18.5337 24.0027 16.0093 24.6338C15.7131 23.3458 15.4941 22.0965 15.3396 20.8987C14.7342 15.9787 15.4812 12.1535 17.22 11.136C17.6064 10.9041 18.1087 10.8011 18.7011 10.8011V7.92896C17.6193 7.92896 16.6404 8.16079 15.7904 8.65022C12.1712 10.7367 11.3598 17.2409 13.2273 25.4065C5.21623 27.8794 0 31.8335 0 36.0064C0 40.1923 5.24199 44.1592 13.2788 46.6192C11.4242 54.8106 12.2485 61.3277 15.8805 63.4142C16.7177 63.9036 17.6965 64.1354 18.7784 64.1354C22.3203 64.1354 26.957 61.611 31.6451 57.232C36.3333 61.5853 40.9699 64.0839 44.5118 64.0839C45.5937 64.0839 46.5725 63.8521 47.4226 63.3626C51.0418 61.2762 51.8532 54.772 49.9856 46.6063C57.971 44.1463 63.1872 40.1794 63.1872 36.0064V36.0064ZM46.418 27.4158C45.9414 29.0772 45.349 30.7902 44.6792 32.5032C44.1512 31.4728 43.5974 30.4425 42.992 29.4121C42.3996 28.3817 41.7685 27.3771 41.1374 26.3983C42.9663 26.6687 44.7308 27.0036 46.418 27.4158ZM40.5191 41.1325C39.5145 42.8712 38.4842 44.5198 37.4152 46.0525C35.4961 46.2199 33.5513 46.3101 31.5936 46.3101C29.6488 46.3101 27.704 46.2199 25.7978 46.0654C24.7288 44.5327 23.6855 42.897 22.6809 41.1711C21.7021 39.4839 20.8134 37.7709 20.002 36.0451C20.8005 34.3192 21.7021 32.5933 22.6681 30.9061C23.6727 29.1674 24.703 27.5188 25.772 25.9861C27.6911 25.8187 29.6359 25.7285 31.5936 25.7285C33.5384 25.7285 35.4832 25.8187 37.3894 25.9732C38.4584 27.5059 39.5017 29.1416 40.5063 30.8675C41.4851 32.5547 42.3738 34.2677 43.1852 35.9936C42.3738 37.7194 41.4851 39.4453 40.5191 41.1325ZM44.6792 39.4582C45.3747 41.184 45.9672 42.9099 46.4566 44.5842C44.7694 44.9964 42.992 45.3441 41.1502 45.6146C41.7813 44.6229 42.4124 43.6054 43.0049 42.5621C43.5974 41.5318 44.1512 40.4885 44.6792 39.4582ZM31.6194 53.2007C30.4216 51.9642 29.2238 50.5861 28.0388 49.0792C29.198 49.1307 30.3829 49.1694 31.5807 49.1694C32.7914 49.1694 33.9892 49.1436 35.1612 49.0792C34.0021 50.5861 32.8043 51.9642 31.6194 53.2007ZM22.037 45.6146C20.2081 45.3441 18.4436 45.0093 16.7563 44.5971C17.2329 42.9356 17.8253 41.2227 18.4951 39.5097C19.0231 40.54 19.577 41.5704 20.1823 42.6008C20.7876 43.6311 21.4059 44.6357 22.037 45.6146ZM31.555 18.8122C32.7528 20.0486 33.9506 21.4268 35.1355 22.9337C33.9763 22.8821 32.7914 22.8435 31.5936 22.8435C30.3829 22.8435 29.1851 22.8693 28.0131 22.9337C29.1722 21.4268 30.37 20.0486 31.555 18.8122ZM22.0241 26.3983C21.393 27.39 20.7619 28.4075 20.1694 29.4507C19.577 30.4811 19.0231 31.5115 18.4951 32.5418C17.7996 30.816 17.2071 29.0901 16.7177 27.4158C18.4049 27.0165 20.1823 26.6687 22.0241 26.3983V26.3983ZM10.3681 42.5235C5.80869 40.5787 2.85927 38.0285 2.85927 36.0064C2.85927 33.9843 5.80869 31.4213 10.3681 29.4894C11.4757 29.0128 12.6864 28.5878 13.9357 28.1885C14.6698 30.7129 15.6358 33.3404 16.8336 36.0322C15.6487 38.7111 14.6956 41.3257 13.9743 43.8372C12.6993 43.4379 11.4886 43 10.3681 42.5235ZM17.2973 60.9284C15.5456 59.9238 14.7858 56.0986 15.3782 51.1786C15.5199 49.9679 15.7517 48.6928 16.0351 47.392C18.5595 48.0102 21.3157 48.4867 24.2136 48.7958C25.9523 51.1786 27.7555 53.3423 29.5715 55.2356C25.3728 59.1381 21.4316 61.2762 18.7527 61.2762C18.1731 61.2633 17.6837 61.1474 17.2973 60.9284V60.9284ZM47.8476 51.1142C48.453 56.0342 47.7059 59.8594 45.9672 60.8769C45.5808 61.1087 45.0785 61.2118 44.4861 61.2118C41.82 61.2118 37.866 59.0866 33.6672 55.2099C35.4704 53.3166 37.2735 51.1657 38.9865 48.783C41.8973 48.4739 44.6535 47.9973 47.1779 47.3662C47.4741 48.6671 47.7059 49.9164 47.8476 51.1142V51.1142ZM52.8063 42.5235C51.6986 43 50.4879 43.4251 49.2386 43.8243C48.5045 41.2999 47.5385 38.6725 46.3407 35.9807C47.5256 33.3017 48.4787 30.6872 49.2 28.1757C50.4751 28.5749 51.6857 29.0128 52.8191 29.4894C57.3785 31.4342 60.3279 33.9843 60.3279 36.0064C60.315 38.0285 57.3656 40.5916 52.8063 42.5235V42.5235Z" fill="#61DAFB"/>
<path d="M31.5808 41.8925C34.8316 41.8925 37.4668 39.2572 37.4668 36.0065C37.4668 32.7558 34.8316 30.1205 31.5808 30.1205C28.3301 30.1205 25.6948 32.7558 25.6948 36.0065C25.6948 39.2572 28.3301 41.8925 31.5808 41.8925Z" fill="#61DAFB"/>
</g>
<defs>
<clipPath id="clip0">
<rect width="63.1872" height="72" fill="white"/>
</clipPath>
</defs>
</svg>
